<svg width="156" height="58" viewBox="0 0 156 58" fill="none" xmlns="http://www.w3.org/2000/svg">
<g filter="url(#filter0_d_109_435)">
<path d="M12.8322 25.312C11.0829 25.312 9.54686 24.8534 8.22419 23.936C6.90152 23.0187 5.86686 21.696 5.12019 19.968C4.37352 18.24 4.00019 16.16 4.00019 13.728C4.00019 11.2747 4.39486 9.18403 5.18419 7.45603C5.99486 5.72803 7.07219 4.41603 8.41619 3.52003C9.78152 2.6027 11.2855 2.14403 12.9282 2.14403C13.9949 2.14403 14.8802 2.24003 15.5842 2.43203C16.3095 2.62403 16.8855 2.83736 17.3122 3.07203C17.7389 3.3067 18.0375 3.4987 18.2082 3.64803L17.3122 5.79203C16.7362 5.36536 16.0749 5.01336 15.3282 4.73603C14.6029 4.4587 13.8242 4.32003 12.9922 4.32003C11.8189 4.32003 10.7415 4.70403 9.76019 5.47203C8.77886 6.24003 8.00019 7.32803 7.42419 8.73603C6.84819 10.144 6.56019 11.808 6.56019 13.728C6.56019 15.4987 6.80552 17.0987 7.29619 18.528C7.80819 19.936 8.55486 21.056 9.53619 21.888C10.5175 22.6987 11.7229 23.104 13.1522 23.104C13.9842 23.104 14.6029 23.04 15.0082 22.912C15.4349 22.784 15.7229 22.6667 15.8722 22.56V14.08H18.3682V24.288C17.9415 24.4374 17.2269 24.64 16.2242 24.896C15.2429 25.1734 14.1122 25.312 12.8322 25.312ZM27.6344 25.184C26.2264 25.184 24.9678 24.832 23.8584 24.128C22.7704 23.4027 21.9064 22.4 21.2664 21.12C20.6264 19.8187 20.3064 18.2934 20.3064 16.544C20.3064 14.7947 20.6158 13.28 21.2344 12C21.8744 10.6987 22.7491 9.68536 23.8584 8.96003C24.9678 8.2347 26.2264 7.87203 27.6344 7.87203C29.0851 7.87203 30.3651 8.2347 31.4744 8.96003C32.6051 9.68536 33.4904 10.6987 34.1304 12C34.7704 13.28 35.0904 14.7947 35.0904 16.544C35.0904 18.2934 34.7704 19.8187 34.1304 21.12C33.4904 22.4 32.6051 23.4027 31.4744 24.128C30.3651 24.832 29.0851 25.184 27.6344 25.184ZM27.6664 22.88C28.6264 22.88 29.4691 22.6347 30.1944 22.144C30.9198 21.632 31.4851 20.9067 31.8904 19.968C32.2958 19.008 32.4984 17.8667 32.4984 16.544C32.4984 15.2214 32.2958 14.08 31.8904 13.12C31.4851 12.16 30.9091 11.424 30.1624 10.912C29.4371 10.4 28.5944 10.144 27.6344 10.144C26.6958 10.144 25.8638 10.4 25.1384 10.912C24.4344 11.424 23.8798 12.16 23.4744 13.12C23.0904 14.08 22.8984 15.2214 22.8984 16.544C22.8984 17.8667 23.1011 19.008 23.5064 19.968C23.9118 20.9067 24.4771 21.632 25.2024 22.144C25.9278 22.6347 26.7491 22.88 27.6664 22.88ZM44.2607 25.184C42.8527 25.184 41.594 24.832 40.4847 24.128C39.3967 23.4027 38.5327 22.4 37.8927 21.12C37.2527 19.8187 36.9327 18.2934 36.9327 16.544C36.9327 14.7947 37.242 13.28 37.8607 12C38.5007 10.6987 39.3754 9.68536 40.4847 8.96003C41.594 8.2347 42.8527 7.87203 44.2607 7.87203C45.7114 7.87203 46.9914 8.2347 48.1007 8.96003C49.2314 9.68536 50.1167 10.6987 50.7567 12C51.3967 13.28 51.7167 14.7947 51.7167 16.544C51.7167 18.2934 51.3967 19.8187 50.7567 21.12C50.1167 22.4 49.2314 23.4027 48.1007 24.128C46.9914 24.832 45.7114 25.184 44.2607 25.184ZM44.2927 22.88C45.2527 22.88 46.0954 22.6347 46.8207 22.144C47.546 21.632 48.1114 20.9067 48.5167 19.968C48.922 19.008 49.1247 17.8667 49.1247 16.544C49.1247 15.2214 48.922 14.08 48.5167 13.12C48.1114 12.16 47.5354 11.424 46.7887 10.912C46.0634 10.4 45.2207 10.144 44.2607 10.144C43.322 10.144 42.49 10.4 41.7647 10.912C41.0607 11.424 40.506 12.16 40.1007 13.12C39.7167 14.08 39.5247 15.2214 39.5247 16.544C39.5247 17.8667 39.7274 19.008 40.1327 19.968C40.538 20.9067 41.1034 21.632 41.8287 22.144C42.554 22.6347 43.3754 22.88 44.2927 22.88ZM61.4949 25.216C59.9589 25.216 58.5936 24.864 57.3989 24.16C56.2043 23.456 55.2656 22.4534 54.5829 21.152C53.9003 19.8507 53.5589 18.304 53.5589 16.512C53.5589 14.8267 53.8576 13.344 54.4549 12.064C55.0523 10.7627 55.8949 9.7387 56.9829 8.99203C58.0709 8.24536 59.3509 7.87203 60.8229 7.87203C61.7829 7.87203 62.6043 7.98936 63.2869 8.22403C63.9909 8.4587 64.5029 8.69336 64.8229 8.92803V0.44803L67.3189 3.05176e-05V24.352C66.9349 24.4587 66.4656 24.5867 65.9109 24.736C65.3563 24.864 64.7163 24.9707 63.9909 25.056C63.2656 25.1627 62.4336 25.216 61.4949 25.216ZM61.4629 22.88C62.3163 22.88 63.0309 22.848 63.6069 22.784C64.2043 22.6987 64.6096 22.6134 64.8229 22.528V11.584C64.4816 11.2427 63.9589 10.9227 63.2549 10.624C62.5509 10.304 61.8149 10.144 61.0469 10.144C59.8949 10.144 58.9563 10.432 58.2309 11.008C57.5269 11.584 57.0043 12.3627 56.6629 13.344C56.3429 14.304 56.1829 15.3814 56.1829 16.576C56.1829 18.6454 56.6843 20.2134 57.6869 21.28C58.7109 22.3467 59.9696 22.88 61.4629 22.88ZM71.2732 24.832V8.70403C72.4039 8.40536 73.4919 8.2027 74.5372 8.09603C75.5825 7.96803 76.4999 7.90403 77.2892 7.90403C78.6759 7.90403 79.8705 8.1387 80.8732 8.60803C81.8759 9.05603 82.6439 9.8027 83.1772 10.848C83.7319 11.872 84.0092 13.2587 84.0092 15.008V24.832H81.5132V15.52C81.5132 13.984 81.3212 12.8427 80.9372 12.096C80.5532 11.328 80.0305 10.816 79.3692 10.56C78.7292 10.304 78.0039 10.176 77.1932 10.176C76.6599 10.176 76.0945 10.208 75.4972 10.272C74.8999 10.336 74.3239 10.4214 73.7692 10.528V24.832H71.2732ZM97.4674 25.216C96.1021 25.216 95.0354 24.9707 94.2674 24.48C93.5208 23.9894 92.9981 23.264 92.6994 22.304C92.4008 21.3227 92.2514 20.0854 92.2514 18.592V10.4H87.3554V8.25603H94.6834V18.432C94.6834 19.648 94.7901 20.5867 95.0034 21.248C95.2381 21.888 95.5688 22.3254 95.9954 22.56C96.4434 22.7947 96.9661 22.912 97.5634 22.912C98.3314 22.912 99.0034 22.816 99.5794 22.624C100.177 22.432 100.593 22.272 100.827 22.144L101.179 24.32C101.137 24.3627 100.934 24.4587 100.571 24.608C100.23 24.7574 99.7821 24.896 99.2274 25.024C98.6941 25.152 98.1074 25.216 97.4674 25.216ZM92.7634 5.21603C92.1661 5.21603 91.6541 5.01336 91.2274 4.60803C90.8008 4.18136 90.5874 3.6267 90.5874 2.94403C90.5874 2.24003 90.8008 1.68536 91.2274 1.28003C91.6541 0.874696 92.1661 0.672029 92.7634 0.672029C93.3821 0.672029 93.8941 0.874696 94.2994 1.28003C94.7048 1.68536 94.9074 2.24003 94.9074 2.94403C94.9074 3.6267 94.7048 4.18136 94.2994 4.60803C93.8941 5.01336 93.3821 5.21603 92.7634 5.21603ZM109.454 30.848C108.408 30.848 107.448 30.7627 106.574 30.592C105.72 30.4427 105.006 30.2614 104.43 30.048L104.846 27.808C105.464 28.064 106.168 28.2667 106.958 28.416C107.768 28.5654 108.622 28.64 109.518 28.64C110.691 28.64 111.651 28.48 112.398 28.16C113.166 27.8614 113.731 27.36 114.094 26.656C114.456 25.9734 114.638 25.0667 114.638 23.936V23.392C114.382 23.5414 113.87 23.744 113.102 24C112.355 24.256 111.48 24.384 110.478 24.384C109.24 24.384 108.078 24.1067 106.99 23.552C105.902 22.976 105.027 22.0907 104.366 20.896C103.704 19.68 103.374 18.1334 103.374 16.256C103.374 14.72 103.662 13.3227 104.238 12.064C104.814 10.784 105.656 9.7707 106.766 9.02403C107.896 8.25603 109.262 7.87203 110.862 7.87203C112.398 7.87203 113.688 7.9787 114.734 8.19203C115.779 8.40536 116.579 8.59736 117.134 8.76803V23.776C117.134 26.2934 116.483 28.096 115.182 29.184C113.902 30.2934 111.992 30.848 109.454 30.848ZM110.542 22.048C111.352 22.048 112.131 21.9307 112.878 21.696C113.624 21.4614 114.211 21.184 114.638 20.864V10.656C114.36 10.5494 113.923 10.4534 113.326 10.368C112.75 10.2614 111.96 10.208 110.958 10.208C109.912 10.208 109.016 10.464 108.27 10.976C107.523 11.488 106.958 12.2027 106.574 13.12C106.19 14.0374 105.998 15.0934 105.998 16.288C105.998 17.6534 106.222 18.7627 106.67 19.616C107.118 20.4694 107.683 21.088 108.366 21.472C109.07 21.856 109.795 22.048 110.542 22.048ZM121.152 24.832V0.44803L123.648 3.05176e-05V8.54403C124.203 8.3307 124.789 8.1707 125.408 8.06403C126.027 7.95736 126.645 7.90403 127.264 7.90403C128.971 7.90403 130.304 8.22403 131.264 8.86403C132.224 9.4827 132.896 10.368 133.28 11.52C133.685 12.6507 133.888 13.9734 133.888 15.488V24.832H131.392V16.16C131.392 14.6667 131.253 13.4934 130.976 12.64C130.72 11.7654 130.272 11.136 129.632 10.752C129.013 10.368 128.149 10.176 127.04 10.176C126.379 10.176 125.717 10.2507 125.056 10.4C124.395 10.5494 123.925 10.6774 123.648 10.784V24.832H121.152ZM147.058 25.216C145.33 25.216 144.04 24.9387 143.186 24.384C142.333 23.808 141.768 23.008 141.49 21.984C141.213 20.96 141.074 19.7654 141.074 18.4V10.4H137.682V8.25603H141.074V3.48803L143.57 3.04003V8.25603H150.61V10.4H143.57V18.432C143.57 19.6054 143.688 20.5227 143.922 21.184C144.157 21.824 144.541 22.272 145.074 22.528C145.629 22.784 146.365 22.912 147.282 22.912C148.136 22.912 148.808 22.8374 149.298 22.688C149.81 22.5174 150.258 22.3467 150.642 22.176L151.026 24.288C150.856 24.3734 150.429 24.5547 149.746 24.832C149.064 25.088 148.168 25.216 147.058 25.216ZM46.9961 48.832V34.972H48.5561V40.932H54.6361V34.972H56.1961V48.832H54.6361V42.272H48.5561V48.832H46.9961ZM62.2675 49.072C61.7342 49.072 61.2008 49.0254 60.6675 48.932C60.1475 48.852 59.6675 48.692 59.2275 48.452C58.8008 48.212 58.4542 47.8787 58.1875 47.452C57.9208 47.012 57.7875 46.452 57.7875 45.772C57.7875 44.9854 58.0075 44.3587 58.4475 43.892C58.8875 43.4254 59.4475 43.092 60.1275 42.892C60.8075 42.6787 61.5075 42.572 62.2275 42.572C62.6142 42.572 62.9875 42.5987 63.3475 42.652C63.7208 42.692 64.0808 42.752 64.4275 42.832V42.272C64.4275 41.832 64.3608 41.4054 64.2275 40.992C64.1075 40.5787 63.8608 40.2387 63.4875 39.972C63.1275 39.7054 62.5875 39.572 61.8675 39.572C61.2008 39.572 60.6208 39.6254 60.1275 39.732C59.6475 39.8254 59.2942 39.9187 59.0675 40.012L58.8875 38.672C59.1142 38.5654 59.5142 38.4654 60.0875 38.372C60.6608 38.2787 61.2875 38.232 61.9675 38.232C62.9808 38.232 63.7808 38.3987 64.3675 38.732C64.9542 39.0654 65.3742 39.5254 65.6275 40.112C65.8808 40.6854 66.0075 41.352 66.0075 42.112V48.672C65.5542 48.752 64.9875 48.8387 64.3075 48.932C63.6275 49.0254 62.9475 49.072 62.2675 49.072ZM62.1475 47.712C62.6542 47.712 63.1008 47.692 63.4875 47.652C63.8875 47.612 64.2008 47.5654 64.4275 47.512V44.232C64.1875 44.152 63.8808 44.0854 63.5075 44.032C63.1475 43.9654 62.7608 43.932 62.3475 43.932C61.8808 43.932 61.4208 43.9854 60.9675 44.092C60.5142 44.1987 60.1408 44.3854 59.8475 44.652C59.5542 44.9187 59.4075 45.292 59.4075 45.772C59.4075 46.5054 59.6475 47.012 60.1275 47.292C60.6208 47.572 61.2942 47.712 62.1475 47.712ZM74.4189 49.072C73.5389 49.072 72.8656 48.9187 72.3989 48.612C71.9322 48.292 71.6056 47.8254 71.4189 47.212C71.2456 46.5987 71.1589 45.8254 71.1589 44.892V34.772H68.0989V33.412H72.6789V44.832C72.6789 45.5787 72.7389 46.1587 72.8589 46.572C72.9922 46.972 73.1856 47.252 73.4389 47.412C73.6922 47.5587 74.0189 47.632 74.4189 47.632C74.8322 47.632 75.2189 47.5854 75.5789 47.492C75.9522 47.3987 76.2656 47.2854 76.5189 47.152L76.7389 48.512C76.5522 48.6187 76.2322 48.7387 75.7789 48.872C75.3256 49.0054 74.8722 49.072 74.4189 49.072ZM83.0503 49.072C82.517 49.072 81.9836 49.0254 81.4503 48.932C80.9303 48.852 80.4503 48.692 80.0103 48.452C79.5836 48.212 79.237 47.8787 78.9703 47.452C78.7036 47.012 78.5703 46.452 78.5703 45.772C78.5703 44.9854 78.7903 44.3587 79.2303 43.892C79.6703 43.4254 80.2303 43.092 80.9103 42.892C81.5903 42.6787 82.2903 42.572 83.0103 42.572C83.397 42.572 83.7703 42.5987 84.1303 42.652C84.5036 42.692 84.8636 42.752 85.2103 42.832V42.272C85.2103 41.832 85.1436 41.4054 85.0103 40.992C84.8903 40.5787 84.6436 40.2387 84.2703 39.972C83.9103 39.7054 83.3703 39.572 82.6503 39.572C81.9836 39.572 81.4036 39.6254 80.9103 39.732C80.4303 39.8254 80.077 39.9187 79.8503 40.012L79.6703 38.672C79.897 38.5654 80.297 38.4654 80.8703 38.372C81.4436 38.2787 82.0703 38.232 82.7503 38.232C83.7636 38.232 84.5636 38.3987 85.1503 38.732C85.737 39.0654 86.157 39.5254 86.4103 40.112C86.6636 40.6854 86.7903 41.352 86.7903 42.112V48.672C86.337 48.752 85.7703 48.8387 85.0903 48.932C84.4103 49.0254 83.7303 49.072 83.0503 49.072ZM82.9303 47.712C83.437 47.712 83.8836 47.692 84.2703 47.652C84.6703 47.612 84.9836 47.5654 85.2103 47.512V44.232C84.9703 44.152 84.6636 44.0854 84.2903 44.032C83.9303 43.9654 83.5436 43.932 83.1303 43.932C82.6636 43.932 82.2036 43.9854 81.7503 44.092C81.297 44.1987 80.9236 44.3854 80.6303 44.652C80.337 44.9187 80.1903 45.292 80.1903 45.772C80.1903 46.5054 80.4303 47.012 80.9103 47.292C81.4036 47.572 82.077 47.712 82.9303 47.712ZM94.3417 49.132C93.3151 49.132 92.3751 48.8787 91.5217 48.372C90.6817 47.8654 90.0084 47.0787 89.5017 46.012C88.9951 44.9454 88.7417 43.572 88.7417 41.892C88.7417 40.3054 88.9951 38.9787 89.5017 37.912C90.0217 36.832 90.7084 36.0187 91.5617 35.472C92.4151 34.9254 93.3417 34.652 94.3417 34.652C94.6217 34.652 94.9351 34.6787 95.2817 34.732C95.6417 34.772 96.0217 34.8587 96.4217 34.992C96.8217 35.1254 97.2417 35.3254 97.6817 35.592L97.2017 36.912C96.6284 36.6054 96.1151 36.392 95.6617 36.272C95.2217 36.1387 94.8151 36.072 94.4417 36.072C93.5617 36.072 92.8151 36.332 92.2017 36.852C91.5884 37.3587 91.1217 38.052 90.8017 38.932C90.4951 39.812 90.3417 40.8054 90.3417 41.912C90.3417 43.2454 90.5284 44.3387 90.9017 45.192C91.2884 46.0454 91.8017 46.6787 92.4417 47.092C93.0817 47.5054 93.7817 47.712 94.5417 47.712C94.9017 47.712 95.3217 47.6654 95.8017 47.572C96.2817 47.4654 96.8084 47.2587 97.3817 46.952L97.8017 48.272C97.2417 48.592 96.6751 48.812 96.1017 48.932C95.5417 49.0654 94.9551 49.132 94.3417 49.132ZM104.653 49.132C103.56 49.132 102.6 48.8454 101.773 48.272C100.946 47.6987 100.3 46.872 99.8331 45.792C99.3665 44.712 99.1331 43.412 99.1331 41.892C99.1331 40.3587 99.3798 39.052 99.8731 37.972C100.38 36.892 101.053 36.072 101.893 35.512C102.746 34.9387 103.686 34.652 104.713 34.652C105.38 34.652 105.933 34.712 106.373 34.832C106.826 34.952 107.186 35.0854 107.453 35.232C107.72 35.3787 107.906 35.4987 108.013 35.592L107.453 36.932C107.093 36.6654 106.68 36.4454 106.213 36.272C105.76 36.0987 105.273 36.012 104.753 36.012C104.02 36.012 103.346 36.252 102.733 36.732C102.12 37.212 101.633 37.892 101.273 38.772C100.913 39.652 100.733 40.692 100.733 41.892C100.733 42.9987 100.886 43.9987 101.193 44.892C101.513 45.772 101.98 46.472 102.593 46.992C103.206 47.4987 103.96 47.752 104.853 47.752C105.373 47.752 105.76 47.712 106.013 47.632C106.28 47.552 106.46 47.4787 106.553 47.412V42.112H108.113V48.492C107.846 48.5854 107.4 48.712 106.773 48.872C106.16 49.0454 105.453 49.132 104.653 49.132Z" fill="#D9D9D9"/>
</g>
<defs>
<filter id="filter0_d_109_435" x="0" y="0" width="155.026" height="57.1321" filterUnits="userSpaceOnUse" color-interpolation-filters="sRGB">
<feFlood flood-opacity="0" result="BackgroundImageFix"/>
<feColorMatrix in="SourceAlpha" type="matrix" values="0 0 0 0 0 0 0 0 0 0 0 0 0 0 0 0 0 0 127 0" result="hardAlpha"/>
<feOffset dy="4"/>
<feGaussianBlur stdDeviation="2"/>
<feComposite in2="hardAlpha" operator="out"/>
<feColorMatrix type="matrix" values="0 0 0 0 0 0 0 0 0 0 0 0 0 0 0 0 0 0 0.25 0"/>
<feBlend mode="normal" in2="BackgroundImageFix" result="effect1_dropShadow_109_435"/>
<feBlend mode="normal" in="SourceGraphic" in2="effect1_dropShadow_109_435" result="shape"/>
</filter>
</defs>
</svg>
